<svg width="64" height="64" viewBox="0 0 64 64" fill="none" xmlns="http://www.w3.org/2000/svg">
<path d="M58.9595 57.2266L6.37281 4.61328L2.95947 7.99995L13.2528 18.2933L8.90614 18.6666L13.6261 28.7733C13.9995 26.6666 14.6661 24.6399 15.8395 22.6666C15.9995 22.2933 16.3461 21.9733 16.5861 21.6266L20.4261 25.4666C19.3328 27.3866 18.6661 29.6266 18.6661 31.9999C18.6661 39.36 24.6395 45.3333 31.9995 45.3333C34.3995 45.3333 36.6128 44.6666 38.5328 43.5733L55.5728 60.6133L58.9595 57.2266ZM31.9995 40C27.5728 40 23.9995 36.4266 23.9995 31.9999C23.9995 31.1199 24.1861 30.2933 24.4528 29.4933L34.5061 39.5466C33.7061 39.8133 32.8795 40 31.9995 40ZM48.1328 22.6666C47.0128 20.7466 45.5995 19.0666 43.9995 17.7066L55.0661 18.6666L50.3461 28.7733C49.9728 26.6666 49.2528 24.6133 48.1328 22.6666ZM31.9995 18.6666C39.3595 18.6666 45.3328 24.6399 45.3328 31.9999C45.3328 33.44 45.0395 34.7999 44.6395 36.1066L39.9995 31.4133C39.6528 27.4666 36.5328 24.3466 32.5861 23.9999L27.9195 19.3866C29.1995 18.9599 30.5595 18.6666 31.9995 18.6666ZM31.9995 13.3333C29.7595 13.3333 27.5995 13.7333 25.6261 14.4533L31.9995 5.33328L38.3728 14.4533C36.3995 13.7333 34.2395 13.3333 31.9995 13.3333ZM50.3195 35.2266L55.0395 45.3333L53.9728 45.44L48.6661 40.1333C49.4395 38.5333 50.0261 36.9066 50.3195 35.2266ZM31.9995 50.6666C34.1861 50.6666 36.3461 50.2133 38.3195 49.4933L31.9995 58.6666L25.5728 49.4933C27.5461 50.2133 29.7061 50.6666 31.9995 50.6666ZM15.8661 41.3333C16.9861 43.3066 18.4261 44.96 19.9995 46.32L8.95947 45.3333L13.6528 35.2799C14.0261 37.3333 14.7461 39.4133 15.8661 41.3333Z" fill="#CCCCCC"/>
</svg>
